inDegrees=no
num_controls=7
num_derivatives=13
num_iterations=120
num_multipliers=7
num_parameters=0
num_slacks=7
num_states=26
objective=5.921020
objective_accelerations=0.757169
objective_balance=0.019772
objective_effort=0.515711
objective_height=4.580667
objective_ligament=0.047701
solver_duration=1065.167996
status=Solve_Succeeded
success=true
DataType=double
version=3
OpenSimVersion=4.4-2022-07-23-0e9fedc
endheader
time	/jointset/ground_pelvis/pelvis_tilt/value	/jointset/ground_pelvis/pelvis_tx/value	/jointset/ground_pelvis/pelvis_ty/value	/jointset/hip_r/hip_flexion_r/value	/jointset/hip_r/hip_adduction_r/value	/jointset/hip_r/hip_rotation_r/value	/jointset/back/lumbar_extension/value	/jointset/patellofemoral_r/patellar_flexion_r/value	/jointset/knee_r/knee_flexion_r/value	/jointset/knee_r/knee_adduction_r/value	/jointset/knee_r/knee_rotation_r/value	/jointset/ankle_r/ankle_angle_r/value	/jointset/subtalar_r/subtalar_angle_r/value	/jointset/ground_pelvis/pelvis_tilt/speed	/jointset/ground_pelvis/pelvis_tx/speed	/jointset/ground_pelvis/pelvis_ty/speed	/jointset/hip_r/hip_flexion_r/speed	/jointset/hip_r/hip_adduction_r/speed	/jointset/hip_r/hip_rotation_r/speed	/jointset/back/lumbar_extension/speed	/jointset/patellofemoral_r/patellar_flexion_r/speed	/jointset/knee_r/knee_flexion_r/speed	/jointset/knee_r/knee_adduction_r/speed	/jointset/knee_r/knee_rotation_r/speed	/jointset/ankle_r/ankle_angle_r/speed	/jointset/subtalar_r/subtalar_angle_r/speed	/forceset/tau_hip_flexion_r	/forceset/tau_hip_adduction_r	/forceset/tau_hip_rotation_r	/forceset/tau_knee_flexion_r	/forceset/tau_ankle_angle_r	/forceset/tau_subtalar_angle_r	/forceset/tau_lumbar_extension	lambda_cid13_p0	lambda_cid14_p0	lambda_cid14_p1	lambda_cid14_p2	lambda_cid14_p3	lambda_cid14_p4	lambda_cid14_p5	/jointset/ground_pelvis/pelvis_tilt/accel	/jointset/ground_pelvis/pelvis_tx/accel	/jointset/ground_pelvis/pelvis_ty/accel	/jointset/hip_r/hip_flexion_r/accel	/jointset/hip_r/hip_adduction_r/accel	/jointset/hip_r/hip_rotation_r/accel	/jointset/back/lumbar_extension/accel	/jointset/patellofemoral_r/patellar_flexion_r/accel	/jointset/knee_r/knee_flexion_r/accel	/jointset/knee_r/knee_adduction_r/accel	/jointset/knee_r/knee_rotation_r/accel	/jointset/ankle_r/ankle_angle_r/accel	/jointset/subtalar_r/subtalar_angle_r/accel	gamma_cid13_p0	gamma_cid14_p0	gamma_cid14_p1	gamma_cid14_p2	gamma_cid14_p3	gamma_cid14_p4	gamma_cid14_p5
1	-0.2910396566131612	-0.02537032867582487	0.5772443958880312	1.625627313292205	-0.2425637918693729	-0.05085824076612622	-0.7853910355093705	1.649623105879036	1.649623105879126	-0.1745255065541512	0.1744981287227328	0.4362379181451665	0.166849807033782	0.06767197409085887	0.004124512781263761	0.01727958930955222	-0.1017580217383172	-0.0007977518977666437	-0.002796032813845341	-0.0001331995627616602	-0.02139301740174232	-0.02139301740173442	0.003996006846804488	-0.0003796705256818488	0.01256555648945421	0.004846138409782404	-0.3766401535598088	0.01923801164649034	0.003733442831822139	-0.4801065339354842	-0.0183776070728962	0.005808380580838841	0.3839253872230817	-0.03938068352389736	-58.74366575204338	-11.36037288674675	6.342140630323529	9.551589532550841	-788.9297506312033	69.91995537182939	1.271156845172082	0.09953520964060303	2.164384581107885	-6.268277700824491	0.2231280321646675	-0.8691927916397479	-0.02122620012533621	-5.622381011976154	-5.622381011976143	0.6099263175059705	-0.03257898432092837	-0.7879611557266375	0.0485754560860238	1.563567325370502e-09	1.611256458136926e-09	7.175684007935686e-09	1.118036207100025e-08	-8.995638750315199e-10	-5.924606945402603e-09	1.563612986800943e-08
1.01	-0.2902998644527045	-0.02532405651428844	0.5775252872671861	1.624296972180059	-0.2425605071576239	-0.05092655685871145	-0.7853927450804712	1.649128466311234	1.649128466311071	-0.1744521045659371	0.1744923404744302	0.4363242254479521	0.1669008437694302	0.08029995977642237	0.005138713965865566	0.03889714869172563	-0.1643239735437874	0.001450793319996415	-0.01082097450689994	-0.0002100337988443192	-0.0775273368088312	-0.07752733680882007	0.01073493540394165	-0.0007718934306093835	0.004699879876711209	0.005354417914404546	-0.3761139206184531	0.01915401524725186	0.003830424740638243	-0.4804539939488595	-0.01780763560684572	0.005800110347238732	0.3837037277466502	-0.03938310370845345	-58.54920295740305	-11.33381980007425	6.342367040609983	9.337005489192137	-788.8126804355853	70.01458098355876	1.260646680065531	0.1036802621229901	2.160208054707298	-6.252818065421627	0.2251393153700685	-0.7622102282101169	-0.00110991192276352	-5.607825041375713	-5.607825041375206	0.7134558785005172	-0.04161665298938231	-0.7852743343279496	0.05094829679162272	7.624954567704997e-09	1.057785840044438e-08	4.179164722202537e-08	5.204782520498986e-08	-7.306152826299087e-09	-1.435154443544753e-08	1.031105771441534e-07
1.02	-0.289433386985385	-0.02526737880305397	0.5780223075277509	1.622340558720898	-0.2425348526838948	-0.05107373544257542	-0.785395262568325	1.648072710022101	1.648072710021996	-0.1743097973423051	0.174482815454885	0.4363319952991408	0.1669567621199561	0.09300903545468096	0.00620562272087106	0.0605053655913712	-0.2269724911497556	0.003676200489466051	-0.01856853100293794	-0.000294783097830869	-0.1336163616679154	-0.1336163616679011	0.01777705410851305	-0.001127024711954969	-0.003141933547227509	0.005822461384656529	-0.3755876876769823	0.01907001884739592	0.003927406655067957	-0.4808014539618294	-0.01723766414101561	0.00579184011224716	0.3834820682702709	-0.03939428573221072	-58.36102975439303	-11.30571422198211	6.339314337562988	9.12556066147531	-788.7938364255002	70.13138878231321	1.287374843711642	0.1100767237204368	2.162516084602226	-6.284790860923349	0.2185004225061826	-0.8137157522363285	-0.0228092127030976	-5.613322102375753	-5.613322102375757	0.6705643469929194	-0.02516065960453297	-0.7831885179677681	0.04052824921143065	1.539942059930561e-08	2.228181964579411e-08	8.235888596439478e-08	1.037182478146912e-07	-1.612610034674377e-08	-2.34025768258913e-08	2.118473035792477e-07
1.03	-0.2884396700364986	-0.02519980236735828	0.578735270852056	1.619757765935059	-0.2424870660533605	-0.05129694688948573	-0.785397944750659	1.64645625342351	1.646456253423629	-0.1740954590301193	0.1744700146554691	0.4362611425678522	0.1670169816177317	0.1057221703501426	0.007315132997480545	0.08207668751211396	-0.2895487549149057	0.005878313733652941	-0.02602638271027318	-0.0001708299790626198	-0.189671635878829	-0.1896716358788113	0.02514386958944334	-0.001422582960639997	-0.01105617606938623	0.006200601611467899	-0.375433844808103	0.01916693210484003	0.004066338350451839	-0.4805122841723779	-0.01749455009112824	0.005817160011385516	0.3836023567082138	-0.03942234826371735	-58.43830154574803	-11.29732528217051	6.325501280464462	9.190280360113031	-788.7277752408139	70.15139290146253	1.261461281379701	0.1122034208413578	2.152841935605827	-6.238441764636592	0.2206641687260802	-0.704702905909125	0.04062116718256609	-5.6011364395032	-5.601136439502453	0.7777218325146438	-0.0301270383834175	-0.7996756079955282	0.03336914824593699	2.319136702671508e-08	3.401371312893001e-08	1.229868520080732e-07	1.554989047047571e-07	-2.497067397503722e-08	-3.245997753164528e-08	3.208009920465762e-07
1.04	-0.2873191860448564	-0.02512096778065353	0.5796636277335284	1.61655033098563	-0.2424173388117016	-0.05159331345841747	-0.785397262688363	1.644279342810999	1.644279342811074	-0.1738058562257584	0.1744545835477032	0.4361103207132832	0.1670803649655488	0.1183624440022163	0.008457252922685836	0.1035840770246734	-0.3519009238931053	0.008064322711653841	-0.03319955545458263	0.0003780668602951389	-0.2457071644518992	-0.2457071644518779	0.0328299524251497	-0.001653086444651835	-0.01913575813774566	0.006455231391500641	-0.3752800019387858	0.01926384536300688	0.004205270042972718	-0.4802231143831329	-0.0177514360411119	0.005842479912009141	0.3837226451466145	-0.03945877851657944	-58.52191282046609	-11.28707663717629	6.30799923622354	9.257169800845219	-788.7621480614855	70.19532131911208	1.272802595033305	0.1165986534403339	2.149729602965686	-6.239971903533791	0.2152795692687429	-0.7567799596310862	0.06217953141731179	-5.609372974806787	-5.609372974806746	0.7344178179484471	-0.01214970666958616	-0.8162564272064077	0.01582615985587813	3.099710439675167e-08	4.412933474557185e-08	1.635881430538552e-07	2.082031805216936e-07	-2.97464601360262e-08	-4.132078065830587e-08	4.289870190957005e-07
1.05	-0.2860729008245546	-0.02503039578991165	0.5808066457213107	1.612720779142395	-0.2423258868744464	-0.05196002224089507	-0.7853876940849567	1.641542352876156	1.641542352876274	-0.1734378268505517	0.1744372320417636	0.4358780091232003	0.1671456381028903	0.1308570230954255	0.009677993178656922	0.1249995941608095	-0.4139428314710906	0.01021937160731605	-0.0400986191733076	0.001735802958977435	-0.3016703698503644	-0.3016703698503381	0.04082381733867416	-0.001804411298360585	-0.02734023786776436	0.00657806216313776	-0.3757489682099759	0.01937474255394417	0.004407737674462929	-0.4795501772565521	-0.018189356000892	0.005881543778461568	0.3845878112108781	-0.03949390247679816	-58.66574181660556	-11.27457700827661	6.282342151554716	9.123530603300349	-789.0090085507734	70.20484425521646	1.232159473795131	0.1279319801984956	2.134463689023947	-6.176298343408607	0.2146457752660964	-0.6499138141657568	0.202592998705561	-5.58673426147818	-5.586734261477181	0.8390421535074678	-0.01463037436045047	-0.8245942344900172	0.007374477253177053	3.880327273374536e-08	5.419444786638578e-08	2.041886005059529e-07	2.609363194300949e-07	-3.439509668866195e-08	-5.01754401106198e-08	5.371490567255059e-07
1.06	-0.284702795031849	-0.02492699234290456	0.582163219064472	1.60827280859176	-0.2422130788031132	-0.05239441050758911	-0.7853585436497975	1.638246342899506	1.638246342899436	-0.1729884245605013	0.1744187659876489	0.4355632426379915	0.1672115121362456	0.1431265584818238	0.01102354417572835	0.1462951481003578	-0.4755846653881967	0.01233554952479351	-0.04673545233882389	0.004294433042062861	-0.3575111728133072	-0.3575111728132763	0.04910453527022481	-0.001875996137637114	-0.03562673714138698	0.006575410592217889	-0.3762179344809555	0.01948563974557737	0.00461020530290512	-0.478877240130199	-0.01862727596050997	0.005920607646365822	0.3854529772753778	-0.03953701556212221	-58.81603434274253	-11.25987037012447	6.25251920538806	8.991643148266336	-789.3596487902951	70.24020427458811	1.227793853670528	0.1415608016609564	2.125736963648237	-6.159957171358317	0.2075053736316439	-0.7043338489892478	0.3023583282949249	-5.584892487702144	-5.584892487702198	0.7917884215540155	0.003798296217156508	-0.8326603359260911	-0.009270308655452305	4.646915397965503e-08	6.470370393716121e-08	2.408772040051636e-07	3.120444884359784e-07	-4.083735554710704e-08	-5.823828883885727e-08	6.3882164400507e-07
1.07	-0.2832110345048973	-0.02480948377254507	0.5837320770155582	1.603210521972026	-0.2420793103813722	-0.05289393721024348	-0.7852979612720421	1.634392618683623	1.634392618683675	-0.1724548766314943	0.1743999847658969	0.4351650924541871	0.1672766649431583	0.1551935285477986	0.01250151729873315	0.167449228858308	-0.536793656607973	0.01441316478221174	-0.05313095686450273	0.008009788018967148	-0.4132054666175821	-0.4132054666175786	0.05764387466372924	-0.001872320787689484	-0.04402714022674885	0.006431991040108849	-0.37626677006277	0.01957219252425452	0.004887087744359168	-0.4780191273148707	-0.01884343699286539	0.005957235347290916	0.3859925087986773	-0.03958842377914592	-58.86639125339686	-11.22584563876591	6.21632930249421	8.799541142699116	-789.290860543122	70.27676490761702	1.191360256952523	0.1544081120282533	2.106148278102428	-6.089506142731375	0.2071887268083688	-0.6012919583194257	0.4342859044073303	-5.557478198387823	-5.557478198391576	0.8908117360549911	-5.766936837400642e-05	-0.847304497925996	-0.02026515782936218	5.412757314625171e-08	7.523658463293461e-08	2.773577301664549e-07	3.630662228725791e-07	-4.737501984735051e-08	-6.625901997538854e-08	7.401490477553658e-07
1.08	-0.2815995619425163	-0.02467649696207282	0.5855116567034711	1.597538518231037	-0.2419249059820371	-0.05345624559887666	-0.7851945929799824	1.629982795455378	1.629982795455403	-0.1718347743004662	0.1743814983330558	0.4346822233988525	0.1673397060786942	0.1670689655694312	0.01411919219828032	0.1884394954655214	-0.5975280896455137	0.01646274503993561	-0.05929178954858394	0.01285161587660598	-0.4687309752857779	-0.4687309752858027	0.0664154155694114	-0.00181703838782428	-0.05257051143549664	0.006153076314380885	-0.3763156056445168	0.01965874530336164	0.00516397018338083	-0.4771610144997352	-0.01905959802511346	0.005993863049126855	0.3865320403220611	-0.03964733133520585	-58.92335702006284	-11.18936299987021	6.175617880234822	8.6082527762937	-789.3297638843876	70.3406944590665	1.189487244801466	0.169501156969958	2.09297413350095	-6.065045534911556	0.2018983736926511	-0.6573994806696414	0.5276529044409344	-5.551135460486202	-5.551135460486404	0.8382287239898676	0.01411970620095784	-0.8612539606022377	-0.03636934337917956	6.072125338541166e-08	8.434459467687247e-08	3.081698836824652e-07	4.079700530994218e-07	-5.302487383165557e-08	-7.273303277657613e-08	8.249835643610298e-07
1.09	-0.2798701873892627	-0.02452660201000499	0.5875002295194305	1.591261653330619	-0.2417501695324932	-0.05407909213754984	-0.7850373254565857	1.625018714088011	1.625018714088158	-0.1711259162438787	0.1743638382068917	0.4341131410894161	0.1673992057705474	0.178781194311078	0.01588632400130536	0.2092386298785024	-0.6577524483243655	0.01847985017108553	-0.06524009443792567	0.0187782656312029	-0.5240420230224547	-0.5240420230225086	0.07538862860531115	-0.001710709910604366	-0.06127545353149591	0.005721437151925531	-0.3759275208141676	0.01970207589957356	0.005508327947815006	-0.476050103044747	-0.01906613353406788	0.006034456385994365	0.3867224102148679	-0.03971252102443013	-58.87860753982135	-11.12883920474189	6.125923345829058	8.346887662737613	-788.8815026310039	70.40182045461538	1.158395853352343	0.1842862384374053	2.067901484837027	-5.987247819883963	0.2009679364499959	-0.5578974784736188	0.6516275333043522	-5.51461172038354	-5.514611720387457	0.9317093191711177	0.009656082142126843	-0.8795373012731194	-0.05026827404407275	6.723392088009273e-08	9.334419064947501e-08	3.385507479754652e-07	4.524083906146525e-07	-5.860717703105228e-08	-7.908936048703105e-08	9.085631873796025e-07
